#N canvas 400 200 340 300 16;
#X obj 170 90 & 1;
#X obj 80 190 t b f;
#X msg 80 120 set \$1;
#X obj 170 30 inlet;
#X obj 80 230 outlet;
#X obj 170 230 outlet;
#X obj 170 60 >> \$1;
#X obj 170 190 << \$1;
#X obj 80 150 tgl 24 0 empty empty empty 0 -12 0 16 #404040 #fcfcfc #fcfcfc 0 1;
#X obj 50 30 cnv 15 72 27 empty empty bitgl 0 12 0 24 #535512 #fcfcfc 0;
#X text 40 60 bit toggle;
#X connect 0 0 2 0;
#X connect 0 0 7 0;
#X connect 1 0 4 0;
#X connect 1 1 7 0;
#X connect 2 0 8 0;
#X connect 3 0 6 0;
#X connect 6 0 0 0;
#X connect 7 0 5 0;
#X connect 8 0 1 0;
#X coords 0 -1 1 1 24 24 2 80 150;
