#N canvas 30 200 370 360 16;
#X declare -lib blunt;
#X obj 140 220 tick 60000;
#X obj 260 170 bng 24 250 50 0 empty empty reset\ avg 0 -12 0 16 #ff8300 #ff0400 #7c7c7c;
#X obj 130 290 dac~;
#X floatatom 150 320 0 0 0 3 avg - - 0;
#N canvas 400 200 450 300 lib 0;
#X obj 140 120 declare -lib blunt;
#X restore 50 320 pd lib;
#X obj 60 190 timer;
#X obj 40 150 b;
#X floatatom 60 250 0 0 0 3 delay - - 0;
#X obj 60 220 #f% 1;
#X floatatom 230 320 0 0 0 3 count - - 0;
#X msg 260 110 0;
#N canvas 400 540 450 300 sync 0;
#X obj 130 30 r sync;
#X obj 130 120 symbol;
#X obj 130 170 f;
#X obj 130 230 / 1;
#X obj 180 230 r pow;
#X obj 130 270 outlet;
#X obj 190 60 is s;
#X obj 130 60 t a a;
#X obj 130 90 spigot;
#X obj 200 120 sel;
#N canvas 20 490 450 360 text 0;
#X obj 130 30 inlet;
#X obj 130 150 textfile;
#X obj 60 150 del;
#X msg 130 90 read bpm.txt \, rewind \, bang;
#X obj 60 90 r stop;
#X msg 60 120 stop;
#X obj 130 250 ad 1.5 15;
#X obj 60 220 noise~;
#X obj 60 250 *~;
#X obj 60 280 *~;
#X obj 200 280 hsl 68 20 0.001 1 1 0 empty empty empty -2 -8 0 10 #2f004d #fcfcfc #fcfcfc 0 1;
#N canvas 970 490 450 300 vol 0;
#X obj 160 190 zp~ 15;
#X msg 160 120 0;
#X obj 160 60 inlet;
#X obj 160 220 outlet~;
#X obj 160 150 f;
#X obj 160 90 moses 0.00101;
#X connect 0 0 3 0;
#X connect 1 0 4 0;
#X connect 2 0 5 0;
#X connect 4 0 0 0;
#X connect 5 0 1 0;
#X connect 5 1 4 0;
#X restore 130 280 pd vol;
#X obj 60 310 dac~;
#N canvas 730 350 450 300 offset 0;
#X obj 160 230 outlet;
#X msg 210 160 42.667;
#X msg 280 160 0;
#X obj 160 160 +;
#X obj 230 80 inlet;
#X obj 290 80 inlet;
#X obj 230 120 #/ 1;
#X obj 160 120 *;
#X obj 160 190 del;
#X obj 160 80 inlet;
#X connect 1 0 3 1;
#X connect 2 0 3 1;
#X connect 3 0 8 0;
#X connect 4 0 6 0;
#X connect 5 0 6 1;
#X connect 6 0 7 1;
#X connect 7 0 3 0;
#X connect 8 0 0 0;
#X connect 9 0 7 0;
#X restore 130 220 pd offset;
#X floatatom 180 190 0 0 5000 0 - - - 0;
#X floatatom 220 190 0 1 5000 0 - - - 0;
#X obj 130 60 del;
#X obj 260 220 s dynbpm;
#X obj 260 190 @/ 1000;
#X floatatom 70 190 0 0 0 0 - - - 0;
#X connect 0 0 16 0;
#X connect 1 0 2 0;
#X connect 1 0 13 0;
#X connect 1 0 18 0;
#X connect 1 0 19 0;
#X connect 2 0 1 0;
#X connect 3 0 1 0;
#X connect 4 0 5 0;
#X connect 5 0 2 0;
#X connect 6 0 8 1;
#X connect 7 0 8 0;
#X connect 8 0 9 0;
#X connect 9 0 12 0;
#X connect 9 0 12 1;
#X connect 10 0 11 0;
#X connect 11 0 9 1;
#X connect 13 0 6 0;
#X connect 14 0 13 1;
#X connect 15 0 13 2;
#X connect 16 0 3 0;
#X connect 18 0 17 0;
#X restore 210 270 pd text;
#X floatatom 180 170 0 0 0 0 - - - 0;
#X obj 180 200 s _sync;
#X connect 0 0 7 0;
#X connect 1 0 2 0;
#X connect 2 0 3 0;
#X connect 3 0 5 0;
#X connect 4 0 3 1;
#X connect 6 0 8 1;
#X connect 6 0 9 0;
#X connect 7 0 8 0;
#X connect 7 1 6 0;
#X connect 8 0 1 0;
#X connect 9 0 2 0;
#X connect 11 0 12 0;
#X connect 11 0 2 1;
#X restore 40 20 pd sync;
#X obj 260 80 r stop;
#X obj 180 140 bng 24 250 50 0 beat empty empty 0 -12 0 16 #ff8300 #ff0400 #7c7c7c;
#X floatatom 100 70 0 0 5000 0 - - - 0;
#X floatatom 140 70 0 1 5000 0 - - - 0;
#X obj 110 140 t;
#N canvas 730 350 450 300 bpm 0;
#X obj 180 190 @/ 60000;
#X obj 180 150 @moses;
#X obj 180 120 #* 1;
#X obj 180 90 #* 1;
#X obj 110 90 s _bpm;
#X obj 240 90 r ratio;
#X obj 240 60 r pow;
#X obj 180 60 inlet;
#X obj 180 230 outlet;
#X text 270 190 ms/beat;
#X obj 250 230 outlet;
#X connect 0 0 8 0;
#X connect 0 0 10 0;
#X connect 1 0 0 0;
#X connect 2 0 1 0;
#X connect 3 0 2 0;
#X connect 5 0 2 1;
#X connect 6 0 3 1;
#X connect 7 0 3 0;
#X connect 7 0 4 0;
#X restore 180 110 pd bpm;
#X floatatom 180 80 0 0 0 0 - - - 0;
#X obj 60 60 +;
#X msg 160 20 42.667;
#X msg 120 20 0;
#N canvas 730 350 450 300 offset 0;
#X obj 110 70 inlet;
#X obj 290 70 inlet;
#X obj 110 160 +;
#X obj 170 70 inlet;
#X obj 230 70 inlet;
#X obj 170 110 #/ 4;
#X obj 170 160 #*;
#X obj 110 190 del;
#X obj 110 220 outlet;
#X connect 0 0 2 0;
#X connect 1 0 6 1;
#X connect 2 0 7 0;
#X connect 3 0 5 0;
#X connect 4 0 5 1;
#X connect 5 0 6 0;
#X connect 6 0 2 1;
#X connect 7 0 8 0;
#X restore 70 100 pd offset;
#X obj 180 290 @/ 60000;
#X obj 180 50 r bpm;
#X obj 140 260 *~;
#N canvas 970 490 450 300 vol 0;
#X obj 160 190 zp~ 15;
#X msg 160 120 0;
#X obj 160 60 inlet;
#X obj 160 220 outlet~;
#X obj 160 150 f;
#X obj 160 90 moses 0.00101;
#X connect 0 0 3 0;
#X connect 1 0 4 0;
#X connect 2 0 5 0;
#X connect 4 0 0 0;
#X connect 5 0 1 0;
#X connect 5 1 4 0;
#X restore 190 260 pd vol;
#X obj 260 210 vsl 24 68 0.001 1 1 0 empty empty empty 0 -9 0 16 #2f004d #fcfcfc #fcfcfc 0 1;
#X connect 0 0 25 0;
#X connect 0 1 23 0;
#X connect 0 2 9 0;
#X connect 1 0 0 2;
#X connect 5 0 8 0;
#X connect 6 0 5 0;
#X connect 8 0 7 0;
#X connect 10 0 0 0;
#X connect 10 0 1 0;
#X connect 11 0 6 0;
#X connect 11 0 19 0;
#X connect 12 0 10 0;
#X connect 13 0 0 0;
#X connect 13 0 5 1;
#X connect 14 0 22 1;
#X connect 15 0 22 2;
#X connect 16 0 5 1;
#X connect 16 0 0 0;
#X connect 16 1 0 2;
#X connect 17 0 22 3;
#X connect 17 0 8 1;
#X connect 17 1 0 1;
#X connect 18 0 17 0;
#X connect 19 0 22 0;
#X connect 20 0 19 1;
#X connect 21 0 19 1;
#X connect 22 0 16 0;
#X connect 23 0 3 0;
#X connect 24 0 18 0;
#X connect 25 0 2 0;
#X connect 25 0 2 1;
#X connect 26 0 25 1;
#X connect 27 0 26 0;
