#N canvas 400 200 330 330 16;
#X obj 140 20 cnv 15 42 27 empty empty pan 0 12 0 24 #535512 #fcfcfc 0;
#X text 50 50 constant power panning;
#X obj 90 100 inlet;
#X obj 90 130 clip -1 1;
#X obj 90 160 sly 0.5 1 1;
#X obj 90 190 * 1.5708;
#X obj 90 250 cos;
#X obj 170 250 sin;
#X obj 90 280 outlet;
#X obj 170 280 outlet;
#X text 180 190 pi/2;
#X obj 90 220 t f f;
#X connect 2 0 3 0;
#X connect 3 0 4 0;
#X connect 4 0 5 0;
#X connect 5 0 11 0;
#X connect 6 0 8 0;
#X connect 7 0 9 0;
#X connect 11 0 6 0;
#X connect 11 1 7 0;
