#N canvas 400 200 580 330 16;
#X floatatom 200 290 0 0 0 0 - - - 0;
#X msg 350 220 25;
#X msg 230 170 123;
#X msg 140 170 50;
#X msg 190 170 1, f 2;
#X msg 280 170 1, f 2;
#X obj 200 260 cupq 42 2;
#X obj 240 30 cnv 15 56 27 empty empty cupq 0 12 0 24 #535512 #fcfcfc 0;
#X text 40 70 the left-most and right-most inlets will subtract and add to the current value respectively \, while the middle inlet will output the current value and allow for it to be set to a different value., f 49;
#X msg 350 170 set 24;
#X obj 110 170 bng 24 250 50 0 empty empty empty 0 -12 0 16 #ff8300 #551312 #fcfcfc;
#X obj 320 170 bng 24 250 50 0 empty empty empty 0 -12 0 16 #ff8300 #551312 #fcfcfc;
#X obj 320 220 bng 24 250 50 0 empty empty empty 0 -12 0 16 #ff8300 #551312 #fcfcfc;
#X connect 1 0 6 2;
#X connect 2 0 6 1;
#X connect 3 0 6 0;
#X connect 4 0 6 0;
#X connect 5 0 6 2;
#X connect 6 0 0 0;
#X connect 9 0 6 1;
#X connect 10 0 6 0;
#X connect 11 0 6 1;
#X connect 12 0 6 2;
