#N canvas 400 100 480 610 16;
#X declare -lib blunt;
#X obj 50 480 *~;
#X obj 310 350 cupqb;
#X obj 50 200 openpanel;
#X obj 100 480 *~;
#X obj 310 140 bng 24 250 50 0 empty empty play/pause 0 -12 0 16 #ff8300 #ff0400 #7c7c7c;
#X msg 320 170 stop;
#X text 370 360 tracks;
#X obj 50 340 gmer~;
#X obj 310 320 bng 24 250 50 0 empty empty restart 0 -12 0 16 #ff8300 #ff0400 #7c7c7c;
#X obj 200 30 cnv 15 72 27 empty empty gmer~ 0 12 0 24 #535512 #fcfcfc 0;
#X obj 100 410 *~;
#X obj 50 410 *~;
#N canvas 880 100 450 290 time 0;
#X obj 30 40 inlet;
#X obj 320 230 outlet;
#N canvas 880 100 460 350 display 0;
#X obj 320 250 hms;
#X obj 170 250 hms;
#X obj 320 280 outlet;
#X obj 170 280 outlet;
#X text 140 310 remaining time;
#X text 310 310 current time;
#X obj 210 150 delp;
#X obj 310 70 inlet;
#X msg 310 110 time;
#X obj 210 220 s \$0done;
#N canvas 880 100 330 310 defaults 0;
#X obj 40 70 moses;
#X obj 40 250 outlet;
#X obj 210 70 moses;
#X msg 210 100 5000;
#X obj 210 250 outlet;
#X msg 40 100 90000;
#X obj 40 30 r \$0time;
#X obj 210 30 r \$0fade;
#X floatatom 270 70 0 0 0 0 - - - 0;
#X floatatom 100 70 0 0 0 0 - - - 0;
#X obj 40 180 f;
#X obj 210 180 f;
#X obj 120 100 r \$0stop;
#X obj 120 130 t;
#X obj 80 180 r \$0forever;
#X obj 40 220 spigot 1;
#X obj 210 220 spigot 1;
#X obj 140 220 !;
#X connect 0 0 5 0;
#X connect 0 1 10 0;
#X connect 2 0 3 0;
#X connect 2 1 11 0;
#X connect 3 0 11 0;
#X connect 5 0 10 0;
#X connect 6 0 0 0;
#X connect 6 0 9 0;
#X connect 7 0 2 0;
#X connect 7 0 8 0;
#X connect 10 0 15 0;
#X connect 11 0 16 0;
#X connect 12 0 13 0;
#X connect 13 0 10 0;
#X connect 13 1 11 0;
#X connect 14 0 17 0;
#X connect 15 0 1 0;
#X connect 16 0 4 0;
#X connect 17 0 15 1;
#X connect 17 0 16 1;
#X restore 180 70 pd defaults;
#X obj 260 110 +;
#X obj 40 220 linp~;
#X obj 80 120 delp;
#X text 40 310 fade;
#X obj 130 150 t f b;
#X msg 130 190 1 0;
#X obj 60 70 r \$0pause;
#X text 180 40 time;
#X text 250 40 fade;
#X obj 40 280 s~ \$0fade;
#N canvas 880 100 330 180 forever 0;
#X obj 100 60 t;
#X msg 170 100 stop;
#X msg 100 100 1;
#X obj 100 30 r \$0forever;
#X obj 170 130 outlet;
#X obj 100 130 outlet;
#X connect 0 0 2 0;
#X connect 0 1 1 0;
#X connect 1 0 4 0;
#X connect 2 0 5 0;
#X connect 3 0 0 0;
#X restore 40 40 pd forever;
#X obj 320 220 +;
#N canvas 880 100 320 220 fade 0;
#X obj 120 40 inlet~;
#X obj 120 70 cos~;
#X obj 120 100 *~ 0.5;
#X obj 120 130 +~ 0.5;
#X obj 120 160 outlet~;
#X connect 0 0 1 0;
#X connect 1 0 2 0;
#X connect 2 0 3 0;
#X connect 3 0 4 0;
#X restore 40 250 pd fade;
#X msg 80 150 0.5;
#X connect 0 0 2 0;
#X connect 1 0 3 0;
#X connect 6 0 9 0;
#X connect 6 1 1 0;
#X connect 6 1 22 0;
#X connect 7 0 8 0;
#X connect 8 0 6 0;
#X connect 10 0 13 0;
#X connect 10 0 11 0;
#X connect 10 1 15 0;
#X connect 10 1 11 1;
#X connect 11 0 6 0;
#X connect 11 0 22 1;
#X connect 12 0 23 0;
#X connect 13 0 24 0;
#X connect 15 0 12 1;
#X connect 15 1 16 0;
#X connect 16 0 12 0;
#X connect 17 0 13 0;
#X connect 17 0 12 0;
#X connect 17 0 6 0;
#X connect 21 0 12 0;
#X connect 21 1 6 0;
#X connect 21 1 13 0;
#X connect 22 0 0 0;
#X connect 23 0 20 0;
#X connect 24 0 12 0;
#X restore 220 190 pd display;
#X obj 110 40 route stop;
#X msg 240 80 0;
#N canvas 880 100 360 260 is-playing 0;
#X obj 100 40 r \$0play;
#X obj 100 130 #&&;
#N canvas 880 100 320 260 check-dsp 0;
#X obj 90 30 loadbang;
#X obj 90 60 t;
#X obj 90 100 del 5;
#X obj 150 170 snapshot~;
#X msg 150 100 set 0;
#X obj 170 130 sig~ 1;
#X obj 60 30 bng 24 250 50 0 empty empty empty 0 -12 0 16 #ff8300 #ff0400 #fcfcfc;
#X obj 150 210 outlet;
#X obj 50 140 r pd;
#X obj 50 170 route dsp;
#X connect 0 0 1 0;
#X connect 1 0 2 0;
#X connect 1 1 4 0;
#X connect 2 0 3 0;
#X connect 3 0 7 0;
#X connect 4 0 3 0;
#X connect 5 0 3 0;
#X connect 6 0 1 0;
#X connect 8 0 9 0;
#X connect 9 0 7 0;
#X restore 140 80 pd check-dsp;
#X obj 100 210 outlet;
#X obj 190 120 r \$0forever;
#X obj 100 160 spigot 1;
#X obj 190 160 !;
#X connect 0 0 1 0;
#X connect 1 0 5 0;
#X connect 2 0 1 1;
#X connect 4 0 6 0;
#X connect 5 0 3 0;
#X connect 6 0 5 1;
#X restore 290 80 pd is-playing;
#X obj 220 230 outlet;
#X obj 240 120 tgl 24 0 empty empty empty 0 -12 0 16 #0e4345 #fcfcfc #fcfcfc 0 1;
#X floatatom 360 160 0 0 0 0 - - - 0;
#X obj 110 160 !, f 2;
#X msg 110 190 pause \$1;
#X obj 110 230 s \$0pause;
#X obj 280 120 r \$0reset;
#X obj 240 160 metro 1000;
#X obj 120 80 s \$0stop;
#X obj 30 110 s \$0gme;
#X obj 30 70 t a a;
#X obj 220 40 r \$0end;
#X obj 110 110 s stop;
#X connect 0 0 16 0;
#X connect 2 0 6 0;
#X connect 2 1 1 0;
#X connect 3 0 4 0;
#X connect 3 0 14 0;
#X connect 3 0 18 0;
#X connect 4 0 7 0;
#X connect 5 0 7 0;
#X connect 7 0 9 0;
#X connect 7 0 13 0;
#X connect 8 0 13 1;
#X connect 9 0 10 0;
#X connect 10 0 11 0;
#X connect 12 0 13 0;
#X connect 13 0 2 0;
#X connect 16 0 15 0;
#X connect 16 1 3 0;
#X connect 17 0 4 0;
#X connect 17 0 2 0;
#X restore 310 200 pd time;
#X obj 50 140 bng 24 250 50 0 empty empty previous_directory 0 -12 0 16 #ff8300 #ff0400 #7c7c7c;
#X msg 60 170 symbol ~/Music/Games;
#N canvas 880 100 450 360 bounds 0;
#X obj 40 30 inlet;
#X obj 120 60 + 1;
#X obj 120 30 r \$0n;
#X obj 40 60 moses 1;
#X obj 50 90 moses 2;
#X obj 140 170 s \$0nbx;
#X obj 140 130 r \$0start;
#X obj 50 170 t b f;
#X obj 50 210 s \$0reset;
#X obj 40 290 s \$0gme;
#X obj 140 90 s \$0end;
#X msg 50 240 \$1 \, print \$1 - %song% [%ftime%] \, fade \, time \, sytc, f 38;
#X connect 0 0 3 0;
#X connect 1 0 4 1;
#X connect 2 0 1 0;
#X connect 3 0 9 0;
#X connect 3 1 4 0;
#X connect 4 0 5 0;
#X connect 4 0 7 0;
#X connect 4 1 10 0;
#X connect 6 0 5 0;
#X connect 6 0 7 0;
#X connect 7 0 8 0;
#X connect 7 1 11 0;
#X connect 11 0 9 0;
#X restore 310 410 pd bounds;
#N canvas 880 100 1180 360 route 0;
#X obj 50 30 inlet;
#X obj 330 160 s \$0n;
#X obj 50 200 sel;
#X obj 390 160 print -n;
#X obj 100 260 s \$0start;
#X obj 150 120 s \$0time;
#X obj 230 160 s \$0play;
#X msg 390 120 \$1 track(s);
#X msg 110 30 \; pd dsp \$1;
#X obj 100 200 t f b;
#X obj 60 120 s \$0fade;
#X msg 170 200 print %path% \, tracks \, print %game%;
#X obj 170 230 s \$0gme;
#X obj 50 160 pipe 10;
#X obj 50 80 route open fade time play sytc tracks;
#X obj 280 120 s sync;
#X connect 0 0 14 0;
#X connect 2 1 9 0;
#X connect 7 0 3 0;
#X connect 9 0 4 0;
#X connect 9 1 11 0;
#X connect 11 0 12 0;
#X connect 13 0 2 0;
#X connect 14 0 8 0;
#X connect 14 0 13 0;
#X connect 14 1 10 0;
#X connect 14 2 5 0;
#X connect 14 3 6 0;
#X connect 14 4 15 0;
#X connect 14 5 1 0;
#X connect 14 5 7 0;
#X connect 14 6 3 0;
#X restore 130 340 pd route;
#X msg 50 230 open \$1;
#X obj 50 510 dac~;
#N canvas 880 100 320 160 lib 0;
#X obj 70 70 declare -lib blunt;
#X restore 50 30 pd lib;
#N canvas 880 100 630 560 muting 0;
#X text 150 200 get;
#X text 150 170 set;
#X msg 70 170 mask \$1;
#X obj 70 60 cupqb;
#X msg 90 200 mask;
#X text 130 80 mask helper;
#X msg 250 250 0, f 2;
#X msg 280 250 1, f 2;
#X msg 310 250 2, f 2;
#X msg 340 250 3, f 2;
#X msg 370 250 4, f 2;
#X msg 400 250 5, f 2;
#X msg 430 250 6, f 2;
#X msg 460 250 7, f 2;
#X msg 490 250 8, f 2;
#X msg 250 300 mute \$1;
#X msg 110 230 bmask;
#X text 170 230 print;
#X msg 40 30 set \$1;
#X msg 130 260 voices;
#X obj 70 310 s \$0gme;
#X msg 340 300 mute 0 -1 -2;
#X obj 250 380 s \$0gme;
#X msg 340 350 mute x 1 2;
#X text 240 160 zero unmutes all channels;
#X text 240 180 symbol mutes all channels;
#X text 240 200 repeated values toggle channels;
#X text 240 220 negative values are reverse indexes;
#X text 340 320 zero prevents toggle;
#X text 340 370 solo channels;
#X msg 250 430 1, f 2;
#X msg 280 430 2, f 2;
#X obj 250 500 s \$0gme;
#X text 330 500 solo channels (toggle);
#X msg 250 470 solo \$1;
#X msg 340 430 1 2;
#X msg 340 470 solo \$1 \$2;
#X msg 380 430 -1 -2;
#X obj 170 120 cnv 5 1 36 empty empty empty 20 12 0 16 #dfdfdf #404040 0;
#X obj 120 120 cnv 5 1 30 empty empty empty 20 12 0 16 #9f9f9f #404040 0;
#X obj 220 120 cnv 5 1 30 empty empty empty 20 12 0 16 #9f9f9f #404040 0;
#X obj 320 120 cnv 5 1 30 empty empty empty 20 12 0 16 #9f9f9f #404040 0;
#X obj 270 120 cnv 5 1 36 empty empty empty 20 12 0 16 #dfdfdf #404040 0;
#X obj 370 120 cnv 5 1 36 empty empty empty 20 12 0 16 #dfdfdf #404040 0;
#X obj 70 120 gme-mask;
#X connect 2 0 20 0;
#X connect 3 0 44 0;
#X connect 4 0 20 0;
#X connect 6 0 15 0;
#X connect 7 0 15 0;
#X connect 8 0 15 0;
#X connect 9 0 15 0;
#X connect 10 0 15 0;
#X connect 11 0 15 0;
#X connect 12 0 15 0;
#X connect 13 0 15 0;
#X connect 14 0 15 0;
#X connect 15 0 22 0;
#X connect 16 0 20 0;
#X connect 18 0 3 1;
#X connect 19 0 20 0;
#X connect 21 0 22 0;
#X connect 23 0 22 0;
#X connect 30 0 34 0;
#X connect 31 0 34 0;
#X connect 34 0 32 0;
#X connect 35 0 36 0;
#X connect 36 0 32 0;
#X connect 37 0 36 0;
#X connect 44 0 18 0;
#X connect 44 0 2 0;
#X restore 310 480 pd muting;
#N canvas 880 100 580 420 metadata 0;
#X msg 50 30 print;
#X text 110 30 general track info;
#X text 110 60 file path;
#X text 140 90 total tracks in playlist;
#X msg 60 60 path;
#X text 310 270 custom track info;
#X msg 70 90 tracks;
#X msg 80 130 system;
#X msg 90 160 game;
#X msg 150 160 song;
#X msg 100 190 author;
#X msg 180 190 copyright;
#X msg 130 220 comment;
#X msg 220 220 dumper;
#X text 200 160 send metadata via last outlet;
#X msg 150 300 print ©%copyright%\\\, for the "%system%";
#X msg 150 330 print %author% - %song% (%comment%);
#X obj 50 360 s \$0gme;
#X connect 0 0 17 0;
#X connect 4 0 17 0;
#X connect 6 0 17 0;
#X connect 7 0 17 0;
#X connect 8 0 17 0;
#X connect 9 0 17 0;
#X connect 10 0 17 0;
#X connect 11 0 17 0;
#X connect 12 0 17 0;
#X connect 13 0 17 0;
#X connect 15 0 17 0;
#X connect 16 0 17 0;
#X restore 310 450 pd metadata;
#X obj 150 410 hsl 128 24 0.001 1 1 0 empty empty volume 35 12 0 16 #2f004d #fcfcfc #fcfcfc 0 1;
#X floatatom 210 440 0 0 0 0 - - - 0;
#N canvas 880 100 320 240 vol 0;
#X obj 100 160 zp~ 15;
#X msg 100 90 0;
#X obj 100 30 inlet;
#X obj 100 190 outlet~;
#X obj 170 160 outlet;
#X obj 100 120 f;
#X obj 100 60 moses 0.00101;
#X connect 0 0 3 0;
#X connect 1 0 5 0;
#X connect 2 0 6 0;
#X connect 5 0 0 0;
#X connect 5 0 4 0;
#X connect 6 0 1 0;
#X connect 6 1 5 0;
#X restore 140 440 pd vol;
#X obj 160 230 r \$0gme;
#X obj 130 370 r~ \$0fade;
#N canvas 880 100 730 1010 misc 0;
#X obj 50 80 cupqb 2;
#X text 110 30 0 = Sinc (Best Quality);
#X text 110 50 1 = Sinc (Medium Quality);
#X text 110 70 2 = Sinc (Fastest) (default);
#X text 110 90 3 = Zero-order hold;
#X text 110 110 4 = Linear;
#X text 140 140 Interpolation method;
#X obj 50 240 s \$0gme;
#N canvas 880 100 320 260 pitch 0;
#X obj 60 170 outlet~;
#X obj 180 170 outlet~;
#X obj 60 30 inlet;
#X obj 120 30 inlet~;
#X obj 60 140 *~;
#X obj 210 30 inlet~;
#X obj 180 140 *~;
#X obj 60 60 exp;
#X obj 150 100 @/ 1;
#X obj 40 200 s \$0seek;
#X connect 2 0 7 0;
#X connect 3 0 4 1;
#X connect 4 0 0 0;
#X connect 5 0 6 1;
#X connect 6 0 1 0;
#X connect 7 0 4 0;
#X connect 7 0 8 0;
#X connect 7 0 9 0;
#X connect 8 0 6 0;
#X restore 50 490 pd pitch;
#X obj 50 310 cupqb;
#X msg 140 180 play 0;
#X msg 150 210 play;
#X text 210 180 force pause;
#X text 200 210 toggle play/pause;
#X text 160 480 speed = playback rate;
#X text 160 500 tempo = emulation rate;
#X obj 50 540 s~ \$0speed;
#X obj 160 540 s~ \$0tempo;
#X obj 120 430 vib~;
#X obj 50 430 line;
#X floatatom 120 400 0 0 0 0 - - - 0;
#X floatatom 170 400 0 0 0 0 - - - 0;
#X obj 110 280 loadbang;
#X msg 50 400 \$1 50;
#X obj 110 340 expr ln(2) / 12;
#X obj 50 370 *;
#X msg 50 140 conv \$1;
#X floatatom 370 250 0 0 0 0 - - - 0;
#X obj 320 310 f;
#X msg 320 340 seek \$1;
#X obj 370 310 #*;
#X obj 320 270 bng 24 250 50 0 empty empty empty 0 -12 0 16 #ff8300 #ff0400 #7c7c7c;
#X obj 410 310 r \$0seek;
#X obj 320 370 s \$0gme;
#X obj 370 280 * 1000;
#X floatatom 410 340 0 0 0 0 - - - 0;
#N canvas 880 100 730 610 swing 1;
#X obj 300 160 #/;
#X obj 40 140 #*;
#X floatatom 40 200 5 0 0 1 rate - - 0;
#X floatatom 60 230 5 0 0 1 depth - - 0;
#X floatatom 80 260 5 0 0 1 phase - - 0;
#X obj 190 30 loadbang;
#X obj 40 330 outlet~;
#X obj 40 60 r bpm;
#X obj 100 30 r pow;
#X obj 40 90 #* 1;
#X obj 130 300 r sync;
#X msg 130 330 0;
#N canvas 880 100 450 610 sync 0;
#X obj 180 30 r sync;
#X obj 180 130 symbol;
#X obj 180 170 f;
#X obj 180 200 / 1;
#X obj 220 200 r pow;
#X obj 180 260 outlet;
#X obj 240 60 is s;
#X obj 180 60 t a a;
#X obj 180 90 spigot;
#X obj 180 230 del;
#X floatatom 220 230 0 0 0 0 - - - 0;
#X floatatom 250 129 0 0 0 0 - - - 0;
#X obj 250 90 sel;
#X obj 290 90 r _sync;
#X connect 0 0 7 0;
#X connect 1 0 2 0;
#X connect 2 0 3 0;
#X connect 3 0 10 0;
#X connect 3 0 9 0;
#X connect 4 0 3 1;
#X connect 6 0 8 1;
#X connect 6 0 12 0;
#X connect 7 0 8 0;
#X connect 7 1 6 0;
#X connect 8 0 1 0;
#X connect 9 0 5 0;
#X connect 11 0 2 0;
#X connect 12 0 11 0;
#X connect 13 0 11 0;
#X restore 100 170 pd sync;
#X obj 30 30 r _bpm;
#X obj 190 230 r beat;
#X obj 40 170 / 60;
#X obj 300 190 s ratio;
#N canvas 880 100 450 610 vib~ 0;
#X obj 60 200 +~ 1;
#X obj 60 30 inlet~ rate;
#X obj 110 170 inlet~ depth;
#X obj 60 170 *~;
#X obj 60 230 outlet~;
#X obj 180 30 inlet phase;
#X obj 240 70 * 2;
#X obj 240 100 + 0.25;
#X obj 180 70 t f f;
#X obj 180 100 pack;
#X obj 60 140 fm2op~ 1 2 0.125;
#X obj 90 70 r dynbpm;
#X floatatom 90 100 0 0 0 0 - - - 0;
#X connect 0 0 4 0;
#X connect 1 0 10 0;
#X connect 2 0 3 1;
#X connect 3 0 0 0;
#X connect 5 0 8 0;
#X connect 6 0 7 0;
#X connect 7 0 9 1;
#X connect 8 0 9 0;
#X connect 8 1 6 0;
#X connect 9 0 10 4;
#X connect 10 0 3 0;
#X connect 11 0 1 0;
#X connect 11 0 12 0;
#X restore 40 300 pd vib~;
#X msg 110 60 0.393;
#X obj 200 300 r stop;
#X msg 120 90 0.5;
#X obj 190 90 cupqb;
#X obj 260 90 cupqb;
#X msg 310 50 1;
#X obj 330 90 cupqb;
#X obj 190 190 / 12;
#X connect 0 0 16 0;
#X connect 0 0 1 1;
#X connect 1 0 15 0;
#X connect 2 0 17 0;
#X connect 3 0 17 1;
#X connect 4 0 17 2;
#X connect 5 0 23 0;
#X connect 7 0 9 0;
#X connect 8 0 9 1;
#X connect 9 0 1 0;
#X connect 10 0 11 0;
#X connect 11 0 17 1;
#X connect 12 0 3 0;
#X connect 12 0 4 0;
#X connect 13 0 9 0;
#X connect 14 0 4 0;
#X connect 15 0 2 0;
#X connect 17 0 6 0;
#X connect 18 0 3 0;
#X connect 19 0 11 0;
#X connect 20 0 3 0;
#X connect 21 0 25 0;
#X connect 22 0 0 0;
#X connect 23 0 22 1;
#X connect 23 0 24 1;
#X connect 24 0 0 1;
#X connect 25 0 4 0;
#X restore 190 430 pd swing;
#X connect 0 0 26 0;
#X connect 8 0 16 0;
#X connect 8 1 17 0;
#X connect 9 0 25 0;
#X connect 10 0 7 0;
#X connect 11 0 7 0;
#X connect 18 0 8 1;
#X connect 19 0 8 0;
#X connect 20 0 18 0;
#X connect 21 0 18 1;
#X connect 22 0 9 1;
#X connect 22 0 24 0;
#X connect 23 0 19 0;
#X connect 24 0 25 1;
#X connect 25 0 23 0;
#X connect 26 0 7 0;
#X connect 27 0 34 0;
#X connect 28 0 29 0;
#X connect 29 0 33 0;
#X connect 30 0 28 1;
#X connect 30 0 35 0;
#X connect 31 0 28 0;
#X connect 32 0 30 1;
#X connect 34 0 30 0;
#X connect 36 0 8 2;
#X restore 310 510 pd misc;
#N canvas 880 100 450 300 next 0;
#X obj 170 250 outlet;
#X obj 50 130 r \$0done;
#X obj 170 200 + 1;
#X obj 70 160 r \$0nbx;
#X obj 120 200 %;
#X obj 50 200 f;
#X obj 230 90 bng 24 250 50 0 empty empty repeat\ track 30 12 0 16 #ff8300 #ff0400 #7c7c7c;
#X obj 220 60 bng 24 250 50 0 empty empty repeat\ playlist 30 12 0 16 #ff8300 #ff0400 #7c7c7c;
#X obj 240 160 r \$0start;
#X msg 240 190 set \$1;
#X obj 210 30 bng 24 250 50 0 empty empty no-repeat\ playlist 30 12 0 16 #ff8300 #ff0400 #7c7c7c;
#N canvas 880 100 450 290 order 0;
#X obj 290 70 r \$0nbx;
#X obj 290 150 spigot;
#X obj 280 200 f;
#X obj 70 240 outlet mod;
#X obj 200 240 outlet add;
#X obj 280 30 inlet reptrk;
#X obj 150 30 inlet replst;
#X obj 30 30 inlet norep;
#X obj 70 200 +;
#X obj 80 100 r \$0n;
#X obj 80 130 t b f;
#X obj 290 100 t b f;
#X obj 80 160 spigot 1;
#X obj 170 100 f;
#X obj 210 100 !;
#X msg 140 70 1;
#X msg 30 70 1;
#X obj 30 100 f;
#X msg 80 70 0;
#X msg 220 150 1;
#X msg 180 70 0;
#X connect 0 0 11 0;
#X connect 1 0 2 0;
#X connect 2 0 4 0;
#X connect 5 0 2 0;
#X connect 5 0 19 0;
#X connect 5 0 20 0;
#X connect 6 0 15 0;
#X connect 6 0 18 0;
#X connect 7 0 15 0;
#X connect 7 0 16 0;
#X connect 8 0 3 0;
#X connect 9 0 10 0;
#X connect 10 0 12 0;
#X connect 10 1 8 1;
#X connect 11 0 1 0;
#X connect 11 1 2 1;
#X connect 12 0 8 0;
#X connect 13 0 14 0;
#X connect 13 0 12 1;
#X connect 14 0 1 1;
#X connect 15 0 13 0;
#X connect 15 0 4 0;
#X connect 16 0 17 0;
#X connect 17 0 8 0;
#X connect 18 0 17 0;
#X connect 19 0 3 0;
#X connect 20 0 13 0;
#X restore 150 160 pd order;
#X obj 240 120 tgl 24 0 \$0forever empty play\ forever 30 12 0 16 #0e4345 #fcfcfc #7c7c7c 0 1;
#X connect 1 0 5 0;
#X connect 2 0 0 0;
#X connect 3 0 5 1;
#X connect 4 0 2 0;
#X connect 5 0 4 0;
#X connect 6 0 11 2;
#X connect 7 0 11 1;
#X connect 8 0 9 0;
#X connect 9 0 0 0;
#X connect 10 0 11 0;
#X connect 11 0 4 1;
#X connect 11 1 2 1;
#X restore 340 320 pd next;
#X obj 160 260 r~ \$0speed;
#X obj 160 290 r~ \$0tempo;
#X symbolatom 320 230 0 0 0 0 - - - 0;
#X symbolatom 310 260 0 0 0 0 - - - 0;
#X text 80 60 Variant of [gme~] that uses Rubber Band library for tempo, f 29;
#X connect 0 0 18 0;
#X connect 1 0 15 0;
#X connect 2 0 17 0;
#X connect 3 0 18 1;
#X connect 4 0 12 0;
#X connect 5 0 12 0;
#X connect 7 0 11 0;
#X connect 7 1 10 0;
#X connect 7 2 16 0;
#X connect 8 0 1 1;
#X connect 10 0 3 0;
#X connect 11 0 0 0;
#X connect 12 0 32 0;
#X connect 12 1 31 0;
#X connect 13 0 2 0;
#X connect 14 0 2 0;
#X connect 17 0 7 0;
#X connect 22 0 24 0;
#X connect 24 0 3 1;
#X connect 24 0 0 1;
#X connect 24 1 23 0;
#X connect 25 0 7 0;
#X connect 26 0 10 1;
#X connect 26 0 11 1;
#X connect 28 0 1 1;
#X connect 29 0 7 1;
#X connect 30 0 7 2;
