#N canvas 400 100 570 610 16;
#X declare -lib blunt;
#X obj 80 410 dac~;
#X obj 270 150 cupqb;
#X obj 50 120 openpanel;
#X msg 160 180 stop;
#X msg 270 220 \$1 \, print \$1 - %song%;
#X obj 50 260 gmes~, f 41;
#X msg 50 90 symbol ~/Music/Games;
#X obj 250 20 cnv 15 72 27 empty empty gmes~ 0 12 0 24 #535512 #fcfcfc 0;
#X text 120 50 Multi-channel variant of [gme~];
#N canvas 970 100 370 310 pitch 0;
#X msg 140 210 tempo \$1;
#X floatatom 280 110 0 0 0 0 - - - 0;
#X obj 280 140 * 100;
#X obj 240 180 f;
#X obj 90 30 loadbang;
#X obj 140 250 outlet;
#X msg 40 210 speed \$1;
#X obj 50 60 cupqb;
#X msg 240 210 seek \$1;
#X obj 280 180 #*;
#X obj 140 180 @/ 1;
#X obj 110 120 exp;
#X obj 110 60 expr ln(2) / 12;
#X obj 70 120 *;
#X obj 240 110 bng 24 250 50 0 empty empty empty 0 -12 0 16 #ff8300 #ff0400 #7c7c7c;
#X connect 0 0 5 0;
#X connect 1 0 2 0;
#X connect 2 0 9 0;
#X connect 3 0 8 0;
#X connect 4 0 7 1;
#X connect 4 0 12 0;
#X connect 6 0 5 0;
#X connect 7 0 13 0;
#X connect 8 0 5 0;
#X connect 9 0 3 1;
#X connect 10 0 0 0;
#X connect 11 0 10 0;
#X connect 11 0 9 1;
#X connect 11 0 6 0;
#X connect 12 0 13 1;
#X connect 13 0 11 0;
#X connect 14 0 3 0;
#X restore 160 210 pd pitch;
#N canvas 970 100 360 240 (subpatch) 0;
#X obj 40 30 inlet~ l;
#X obj 140 30 inlet~ r;
#X obj 40 140 *~;
#X obj 140 140 *~;
#X obj 240 80 pan;
#X obj 40 80 *~;
#X obj 140 80 *~;
#X obj 240 140 r \$0vol1;
#X obj 240 30 r \$0pan1;
#X obj 40 180 throw~ l;
#X obj 140 180 throw~ r;
#X connect 0 0 5 0;
#X connect 1 0 6 0;
#X connect 2 0 9 0;
#X connect 3 0 10 0;
#X connect 4 0 5 1;
#X connect 4 1 6 1;
#X connect 5 0 2 0;
#X connect 6 0 3 0;
#X connect 7 0 2 1;
#X connect 7 0 3 1;
#X connect 8 0 4 0;
#X restore 50 300 pd 1;
#X obj 50 370 *~;
#X obj 150 370 *~;
#X msg 50 150 open \$1;
#N canvas 970 100 450 300 route 0;
#X obj 50 40 inlet;
#X obj 50 70 route open;
#X obj 80 170 t f b;
#X obj 80 200 s \$0start;
#X obj 50 140 sel;
#X msg 180 170 tracks \, print %game%;
#X msg 140 110 \; pd dsp \$1;
#X obj 50 110 pipe 10;
#X obj 180 200 s \$0gme;
#X connect 0 0 1 0;
#X connect 1 0 6 0;
#X connect 1 0 7 0;
#X connect 2 0 3 0;
#X connect 2 1 5 0;
#X connect 4 1 2 0;
#X connect 5 0 8 0;
#X connect 7 0 4 0;
#X restore 450 300 pd route;
#X obj 310 90 r \$0start;
#N canvas 970 100 450 300 lib 0;
#X obj 140 120 declare -lib blunt;
#X restore 450 330 pd lib;
#X obj 200 370 hsl 128 24 0.001 1 1 0 empty empty volume 35 12 0 16 #2f004d #fcfcfc #fcfcfc 0 1;
#X floatatom 270 410 0 0 0 0 - - - 0;
#N canvas 970 100 320 240 vol 0;
#X obj 100 160 zp~ 15;
#X msg 100 90 0;
#X obj 100 30 inlet;
#X obj 100 190 outlet~;
#X obj 170 160 outlet;
#X obj 100 120 f;
#X obj 100 60 moses 0.00101;
#X connect 0 0 3 0;
#X connect 1 0 5 0;
#X connect 2 0 6 0;
#X connect 5 0 0 0;
#X connect 5 0 4 0;
#X connect 6 0 1 0;
#X connect 6 1 5 0;
#X restore 200 410 pd vol;
#X obj 160 150 bng 24 250 50 0 empty empty play/pause 0 -12 0 16 #ff8300 #ff0400 #7c7c7c;
#X obj 280 90 bng 24 250 50 0 empty empty empty 0 -12 0 16 #ff8300 #ff0400 #7c7c7c;
#X obj 60 180 r \$0gme;
#X obj 50 340 catch~ l;
#X obj 150 340 catch~ r;
#N canvas 970 100 360 240 (subpatch) 0;
#X obj 40 30 inlet~ l;
#X obj 140 30 inlet~ r;
#X obj 40 140 *~;
#X obj 140 140 *~;
#X obj 240 80 pan;
#X obj 40 80 *~;
#X obj 140 80 *~;
#X obj 40 180 throw~ l;
#X obj 140 180 throw~ r;
#X obj 240 30 r \$0pan2;
#X obj 240 140 r \$0vol2;
#X connect 0 0 5 0;
#X connect 1 0 6 0;
#X connect 2 0 7 0;
#X connect 3 0 8 0;
#X connect 4 0 5 1;
#X connect 4 1 6 1;
#X connect 5 0 2 0;
#X connect 6 0 3 0;
#X connect 9 0 4 0;
#X connect 10 0 2 1;
#X connect 10 0 3 1;
#X restore 100 300 pd 2;
#N canvas 970 100 360 240 (subpatch) 0;
#X obj 40 30 inlet~ l;
#X obj 140 30 inlet~ r;
#X obj 40 140 *~;
#X obj 140 140 *~;
#X obj 240 80 pan;
#X obj 40 80 *~;
#X obj 140 80 *~;
#X obj 40 180 throw~ l;
#X obj 140 180 throw~ r;
#X obj 240 30 r \$0pan3;
#X obj 240 140 r \$0vol3;
#X connect 0 0 5 0;
#X connect 1 0 6 0;
#X connect 2 0 7 0;
#X connect 3 0 8 0;
#X connect 4 0 5 1;
#X connect 4 1 6 1;
#X connect 5 0 2 0;
#X connect 6 0 3 0;
#X connect 9 0 4 0;
#X connect 10 0 2 1;
#X connect 10 0 3 1;
#X restore 150 300 pd 3;
#N canvas 970 100 360 240 (subpatch) 0;
#X obj 40 30 inlet~ l;
#X obj 140 30 inlet~ r;
#X obj 40 140 *~;
#X obj 140 140 *~;
#X obj 240 80 pan;
#X obj 40 80 *~;
#X obj 140 80 *~;
#X obj 40 180 throw~ l;
#X obj 140 180 throw~ r;
#X obj 240 30 r \$0pan4;
#X obj 240 140 r \$0vol4;
#X connect 0 0 5 0;
#X connect 1 0 6 0;
#X connect 2 0 7 0;
#X connect 3 0 8 0;
#X connect 4 0 5 1;
#X connect 4 1 6 1;
#X connect 5 0 2 0;
#X connect 6 0 3 0;
#X connect 9 0 4 0;
#X connect 10 0 2 1;
#X connect 10 0 3 1;
#X restore 200 300 pd 4;
#N canvas 970 100 360 240 (subpatch) 0;
#X obj 40 30 inlet~ l;
#X obj 140 30 inlet~ r;
#X obj 40 140 *~;
#X obj 140 140 *~;
#X obj 240 80 pan;
#X obj 40 80 *~;
#X obj 140 80 *~;
#X obj 40 180 throw~ l;
#X obj 140 180 throw~ r;
#X obj 240 30 r \$0pan5;
#X obj 240 140 r \$0vol5;
#X connect 0 0 5 0;
#X connect 1 0 6 0;
#X connect 2 0 7 0;
#X connect 3 0 8 0;
#X connect 4 0 5 1;
#X connect 4 1 6 1;
#X connect 5 0 2 0;
#X connect 6 0 3 0;
#X connect 9 0 4 0;
#X connect 10 0 2 1;
#X connect 10 0 3 1;
#X restore 250 300 pd 5;
#N canvas 970 100 360 240 (subpatch) 0;
#X obj 40 30 inlet~ l;
#X obj 140 30 inlet~ r;
#X obj 40 140 *~;
#X obj 140 140 *~;
#X obj 240 80 pan;
#X obj 40 80 *~;
#X obj 140 80 *~;
#X obj 40 180 throw~ l;
#X obj 140 180 throw~ r;
#X obj 240 140 r \$0vol6;
#X obj 240 30 r \$0pan6;
#X connect 0 0 5 0;
#X connect 1 0 6 0;
#X connect 2 0 7 0;
#X connect 3 0 8 0;
#X connect 4 0 5 1;
#X connect 4 1 6 1;
#X connect 5 0 2 0;
#X connect 6 0 3 0;
#X connect 9 0 2 1;
#X connect 9 0 3 1;
#X connect 10 0 4 0;
#X restore 300 300 pd 6;
#N canvas 970 100 360 240 (subpatch) 0;
#X obj 40 30 inlet~ l;
#X obj 140 30 inlet~ r;
#X obj 40 140 *~;
#X obj 140 140 *~;
#X obj 240 80 pan;
#X obj 40 80 *~;
#X obj 140 80 *~;
#X obj 40 180 throw~ l;
#X obj 140 180 throw~ r;
#X obj 240 30 r \$0pan7;
#X obj 240 140 r \$0vol7;
#X connect 0 0 5 0;
#X connect 1 0 6 0;
#X connect 2 0 7 0;
#X connect 3 0 8 0;
#X connect 4 0 5 1;
#X connect 4 1 6 1;
#X connect 5 0 2 0;
#X connect 6 0 3 0;
#X connect 9 0 4 0;
#X connect 10 0 2 1;
#X connect 10 0 3 1;
#X restore 350 300 pd 7;
#N canvas 970 100 360 240 (subpatch) 0;
#X obj 40 30 inlet~ l;
#X obj 140 30 inlet~ r;
#X obj 40 140 *~;
#X obj 140 140 *~;
#X obj 240 80 pan;
#X obj 40 80 *~;
#X obj 140 80 *~;
#X obj 40 180 throw~ l;
#X obj 140 180 throw~ r;
#X obj 240 30 r \$0pan8;
#X obj 240 140 r \$0vol8;
#X connect 0 0 5 0;
#X connect 1 0 6 0;
#X connect 2 0 7 0;
#X connect 3 0 8 0;
#X connect 4 0 5 1;
#X connect 4 1 6 1;
#X connect 5 0 2 0;
#X connect 6 0 3 0;
#X connect 9 0 4 0;
#X connect 10 0 2 1;
#X connect 10 0 3 1;
#X restore 400 300 pd 8;
#X obj 90 460 hsl 64 24 0 1 0 0 \$0vol1 \$0vol vol1 12 12 0 16 #2f004d #fcfcfc #fcfcfc 0 1;
#X obj 90 490 hsl 64 24 0 1 0 0 \$0vol2 \$0vol vol2 12 12 0 16 #2f004d #fcfcfc #fcfcfc 0 1;
#X obj 90 520 hsl 64 24 0 1 0 0 \$0vol3 \$0vol vol3 12 12 0 16 #2f004d #fcfcfc #fcfcfc 0 1;
#X obj 90 550 hsl 64 24 0 1 0 0 \$0vol4 \$0vol vol4 12 12 0 16 #2f004d #fcfcfc #fcfcfc 0 1;
#X obj 180 460 hsl 64 24 0 1 0 0 \$0vol5 \$0vol vol5 12 12 0 16 #2f004d #fcfcfc #fcfcfc 0 1;
#X obj 180 490 hsl 64 24 0 1 0 0 \$0vol6 \$0vol vol6 12 12 0 16 #2f004d #fcfcfc #fcfcfc 0 1;
#X obj 180 520 hsl 64 24 0 1 0 0 \$0vol7 \$0vol vol7 12 12 0 16 #2f004d #fcfcfc #fcfcfc 0 1;
#X obj 180 550 hsl 64 24 0 1 0 0 \$0vol8 \$0vol vol8 12 12 0 16 #2f004d #fcfcfc #fcfcfc 0 1;
#X obj 320 460 hsl 64 24 -1 1 0 0 \$0pan1 \$0pan pan1 12 12 0 16 #551312 #fcfcfc #fcfcfc 0 1;
#X obj 320 490 hsl 64 24 -1 1 0 0 \$0pan2 \$0pan pan2 12 12 0 16 #551312 #fcfcfc #fcfcfc 0 1;
#X obj 320 520 hsl 64 24 -1 1 0 0 \$0pan3 \$0pan pan3 12 12 0 16 #551312 #fcfcfc #fcfcfc 0 1;
#X obj 320 550 hsl 64 24 -1 1 0 0 \$0pan4 \$0pan pan4 12 12 0 16 #551312 #fcfcfc #fcfcfc 0 1;
#X obj 410 460 hsl 64 24 -1 1 0 0 \$0pan5 \$0pan pan5 12 12 0 16 #551312 #fcfcfc #fcfcfc 0 1;
#X obj 410 490 hsl 64 24 -1 1 0 0 \$0pan6 \$0pan pan6 12 12 0 16 #551312 #fcfcfc #fcfcfc 0 1;
#X obj 410 520 hsl 64 24 -1 1 0 0 \$0pan7 \$0pan pan7 12 12 0 16 #551312 #fcfcfc #fcfcfc 0 1;
#X obj 410 550 hsl 64 24 -1 1 0 0 \$0pan8 \$0pan pan8 12 12 0 16 #551312 #fcfcfc #fcfcfc 0 1;
#X obj 410 90 loadbang;
#X obj 410 120 \$0;
#X msg 410 150 \; \$1pan 0 \; \$1vol 1;
#X obj 380 120 bng 24 250 50 0 empty empty empty 0 -12 0 16 #ff8300 #ff0400 #7c7c7c;
#X connect 1 0 4 0;
#X connect 2 0 13 0;
#X connect 3 0 5 0;
#X connect 4 0 5 0;
#X connect 5 0 10 0;
#X connect 5 1 10 1;
#X connect 5 2 25 0;
#X connect 5 3 25 1;
#X connect 5 4 26 0;
#X connect 5 5 26 1;
#X connect 5 6 27 0;
#X connect 5 7 27 1;
#X connect 5 8 28 0;
#X connect 5 9 28 1;
#X connect 5 10 29 0;
#X connect 5 11 29 1;
#X connect 5 12 30 0;
#X connect 5 13 30 1;
#X connect 5 14 31 0;
#X connect 5 15 31 1;
#X connect 5 16 14 0;
#X connect 6 0 2 0;
#X connect 9 0 5 0;
#X connect 11 0 0 0;
#X connect 12 0 0 1;
#X connect 13 0 5 0;
#X connect 15 0 1 1;
#X connect 17 0 19 0;
#X connect 19 0 11 1;
#X connect 19 0 12 1;
#X connect 19 1 18 0;
#X connect 20 0 5 0;
#X connect 21 0 1 1;
#X connect 22 0 5 0;
#X connect 23 0 11 0;
#X connect 24 0 12 0;
#X connect 48 0 49 0;
#X connect 49 0 50 0;
#X connect 51 0 49 0;
